<?xml version="1.0" encoding="UTF-8" standalone="no"?>
<svg
   xmlns:dc="http://purl.org/dc/elements/1.1/"
   xmlns:cc="http://creativecommons.org/ns#"
   xmlns:rdf="http://www.w3.org/1999/02/22-rdf-syntax-ns#"
   xmlns:svg="http://www.w3.org/2000/svg"
   xmlns="http://www.w3.org/2000/svg"
   xmlns:sodipodi="http://sodipodi.sourceforge.net/DTD/sodipodi-0.dtd"
   xmlns:inkscape="http://www.inkscape.org/namespaces/inkscape"
   version="1.1"
   id="Layer_1"
   x="0px"
   y="0px"
   viewBox="0 0 105.00277 118.48"
   xml:space="preserve"
   sodipodi:docname="favicon.svg"
   width="105.00277"
   height="118.48"
   inkscape:version="1.0.2 (394de47547, 2021-03-26)"><metadata
   id="metadata29"><rdf:RDF><cc:Work
       rdf:about=""><dc:format>image/svg+xml</dc:format><dc:type
         rdf:resource="http://purl.org/dc/dcmitype/StillImage" /></cc:Work></rdf:RDF></metadata><defs
   id="defs27" /><sodipodi:namedview
   pagecolor="#ffffff"
   bordercolor="#666666"
   borderopacity="1"
   objecttolerance="10"
   gridtolerance="10"
   guidetolerance="10"
   inkscape:pageopacity="0"
   inkscape:pageshadow="2"
   inkscape:window-width="1366"
   inkscape:window-height="704"
   id="namedview25"
   showgrid="false"
   inkscape:zoom="3.0714951"
   inkscape:cx="43.136778"
   inkscape:cy="65.525339"
   inkscape:window-x="0"
   inkscape:window-y="768"
   inkscape:window-maximized="1"
   inkscape:current-layer="Layer_1" />






<g
   id="g47"
   transform="translate(-11.624335,-3.99)"><path
     id="ears"
     style="fill:#ffb380;fill-opacity:1"
     d="m 26.28,94.88 c -7.33,0 -13.29,-5.71 -13.29,-12.73 0,-7.02 5.96,-12.73 13.29,-12.73 h 75.43 c 7.33,0 13.29,5.71 13.29,12.73 0,7.02 -5.96,12.73 -13.29,12.73 z" /><path
     id="head"
     style="fill:#ffb380;fill-opacity:1"
     d="m 64,122.47 c -21.41,0 -44.46,-16.31 -44.46,-52.12 0,-16.64 4.87,-31.97 13.71,-43.17 C 41.51,16.71 52.72,10.71 64,10.71 c 11.28,0 22.49,6 30.75,16.47 8.84,11.2 13.71,26.53 13.71,43.17 0,16.24 -4.79,29.81 -13.86,39.22 -8.01,8.32 -18.88,12.9 -30.6,12.9 z" /><path
     id="nose_1_"
     style="fill:#ff9955;fill-opacity:1"
     d="m 69.07,87.13 c -0.14,-0.06 -0.28,-0.09 -0.42,-0.11 h -9.3 c -0.14,0.02 -0.28,0.05 -0.42,0.11 -0.84,0.34 -1.31,1.22 -0.91,2.14 0.4,0.93 2.25,3.54 5.98,3.54 3.73,0 5.58,-2.61 5.98,-3.54 0.4,-0.93 -0.07,-1.8 -0.91,-2.14 z" /><g
     id="eyebrows_1_"
     style="fill:#1a1a1a">
	<path
   style="fill:#1a1a1a"
   d="m 32.18,68.42 c 4.07,-5.82 13.42,-6.04 18.48,-1.5 0.98,0.88 2.25,2.17 1.61,3.61 -0.58,1.31 -1.98,1.42 -3.12,0.92 -3.49,-1.53 -6.41,-1.97 -9.9,-1.34 -0.9,0.16 -1.77,0.42 -2.64,0.7 -0.69,0.22 -1.31,0.62 -2,0.83 -1.88,0.59 -3.56,-1.52 -2.43,-3.22 z"
   id="path5" />
	<path
   style="fill:#1a1a1a"
   d="M 93.26,71.58 C 90,70 87.67,69.5 84.24,69.93 c -1.7,0.21 -3.34,0.66 -4.92,1.31 -1.09,0.45 -2.3,0.86 -3.22,-0.17 -2.41,-2.68 3.32,-5.81 5.2,-6.52 3.55,-1.34 7.66,-1.01 10.98,0.79 1.38,0.75 2.96,1.85 3.68,3.3 0.86,1.71 -0.9,3.68 -2.7,2.94 z"
   id="path7" />
</g><g
     id="eyes_1_">
	<ellipse
   style="fill:#404040"
   cx="42.139999"
   cy="80.339996"
   rx="6.48"
   ry="6.71"
   id="ellipse10" />
	<ellipse
   style="fill:#404040"
   cx="85.860001"
   cy="80.339996"
   rx="6.48"
   ry="6.71"
   id="ellipse12" />
</g><path
     id="mouth_1_"
     style="fill:#ff8080;fill-opacity:1"
     d="m 75.06,97.97 c -4.19,2.49 -17.91,2.49 -22.1,0 -2.4,-1.43 -4.86,0.76 -3.86,2.94 0.98,2.15 8.47,7.13 14.95,7.13 6.47,0 13.87,-4.98 14.85,-7.13 0.99,-2.19 -1.43,-4.37 -3.84,-2.94 z" /><g
     id="hair_2_"
     style="fill:#1a1a1a">
	<path
   id="hair_3_"
   style="fill:#1a1a1a"
   d="M 103.98,18.49 C 98.01,12.27 92.35,9.64 91.8,9.57 84.88,6.4 75.95,3.99 64.38,3.99 13.53,3.99 10,45.63 12.05,63.87 c 1.25,11.14 5.65,16.47 8.24,18.7 0,0 0.3,-12.67 2.97,-22.87 2.11,-8.08 7.16,-14.07 7.16,-14.07 0,0 9.17,7.99 26.27,13.17 8.24,2.5 18.81,1.24 18.81,1.24 L 69.57,49.55 c 0,0 9.68,7.13 15.72,8.5 7.73,1.75 13.4,1 13.4,1 L 95.85,47.97 c 0,0 4.91,3.24 8.59,12.06 3.68,8.83 2.71,23.11 2.71,23.11 2.51,-1.8 7.88,-7.01 8.96,-19.28 1.76,-20.19 -0.66,-32.28 -12.13,-45.37 z" />
	
		<radialGradient
   id="hairHighlights_1_"
   cx="64.125702"
   cy="53.457298"
   r="54.554401"
   gradientTransform="matrix(0.9997,0.0227,-0.0211,0.9325,1.1459,2.1575)"
   gradientUnits="userSpaceOnUse">
		<stop
   offset="0.6985"
   style="stop-color:#6D4C41;stop-opacity:0"
   id="stop17" />
		<stop
   offset="1"
   style="stop-color:#6D4C41"
   id="stop19" />
	</radialGradient>
	<path
   id="hairHighlights"
   style="fill:#1a1a1a"
   d="M 91.8,9.57 C 84.88,6.4 75.95,3.99 64.38,3.99 13.53,3.99 10,45.63 12.05,63.87 c 1.25,11.14 5.65,16.47 8.24,18.7 0,0 0.3,-12.67 2.97,-22.87 2.11,-8.08 7.16,-14.07 7.16,-14.07 0,0 9.17,7.99 26.27,13.17 8.24,2.5 18.81,1.24 18.81,1.24 L 69.57,49.55 c 0,0 9.68,7.13 15.72,8.5 7.73,1.75 13.4,1 13.4,1 L 95.85,47.97 c 0,0 4.91,3.24 8.59,12.06 3.68,8.83 2.71,23.11 2.71,23.11 2.51,-1.8 7.88,-7.01 8.96,-19.28 C 117.87,43.67 115.45,31.58 103.98,18.49 98.01,12.27 92.35,9.64 91.8,9.57 Z" />
</g></g>
</svg>
